<svg id="Layer_1" data-name="Layer 1" xmlns="http://www.w3.org/2000/svg" xmlns:xlink="http://www.w3.org/1999/xlink" viewBox="0 0 1112.52 290.84"><defs><style>.cls-1{fill:#333;}.cls-2{fill:url(#Безымянный_градиент_49);}.cls-3{fill:#fff;}</style><linearGradient id="Безымянный_градиент_49" x1="16.6" y1="272.76" x2="272.76" y2="16.6" gradientUnits="userSpaceOnUse"><stop offset="0" stop-color="#6068c9"/><stop offset="1" stop-color="#00c8ea"/></linearGradient></defs><title>kickcity_logo-new</title><rect class="cls-1" x="464.93" y="118.97" width="25.26" height="116.98"/><path class="cls-1" d="M492,90.25a14.44,14.44,0,1,1-14.44-14.44A14.44,14.44,0,0,1,492,90.25Z" transform="translate(0 -0.26)"/><path class="cls-1" d="M592.3,198.61a32.91,32.91,0,1,1-.83-42.18l21.22-14.11a58.28,58.28,0,1,0,.76,70.36Z" transform="translate(0 -0.26)"/><rect class="cls-1" x="866.67" y="119.57" width="25.26" height="116.98"/><path class="cls-1" d="M893.73,90.85A14.44,14.44,0,1,1,879.3,76.41,14.44,14.44,0,0,1,893.73,90.85Z" transform="translate(0 -0.26)"/><path class="cls-1" d="M828.86,198.61a32.91,32.91,0,1,1-.83-42.18l21.23-14.11a58.28,58.28,0,1,0,.76,70.36Z" transform="translate(0 -0.26)"/><rect class="cls-1" x="343.71" y="60.83" width="25.26" height="175.72"/><rect class="cls-1" x="632.67" y="60.83" width="25.26" height="175.72"/><path class="cls-1" d="M966.29,211.39c-15.48,0-22.38-5.92-22.38-19.19V145.09h39.87V119.84H943.91V61.09H918.54V192.2c0,21.54,12.55,44.56,47.75,44.56A87,87,0,0,0,989.92,233V206.18C985.4,207.9,975.12,211.39,966.29,211.39Z" transform="translate(0 -0.26)"/><path class="cls-1" d="M1055.77,195.52l-29.52-75.68h-27.1l43,110.34a60.52,60.52,0,0,1-45,36l4.59,24.95a85.78,85.78,0,0,0,64.78-53.51l45.93-117.76h-27.23Z" transform="translate(0 -0.26)"/><polygon class="cls-1" points="406 177.34 446.92 119.57 415.97 119.57 375.04 177.34 417 236.55 447.95 236.55 406 177.34"/><polygon class="cls-1" points="694.96 177.34 735.88 119.57 704.92 119.57 664 177.34 705.96 236.55 736.91 236.55 694.96 177.34"/><rect class="cls-2" width="289.37" height="289.37" rx="56.69" ry="56.69"/><rect class="cls-3" x="90.8" y="54.64" width="26.11" height="181.67"/><polygon class="cls-3" points="155.19 175.09 197.5 115.37 165.5 115.37 123.19 175.09 166.57 236.3 198.57 236.3 155.19 175.09"/></svg>